<?xml version="1.0" encoding="UTF-8" standalone="no"?>
<!DOCTYPE svg PUBLIC "-//W3C//DTD SVG 1.1//EN" "http://www.w3.org/Graphics/SVG/1.1/DTD/svg11.dtd">
<!-- Created with Vectornator (http://vectornator.io/) -->
<svg height="100%" stroke-miterlimit="10" style="fill-rule:nonzero;clip-rule:evenodd;stroke-linecap:round;stroke-linejoin:round;" version="1.1" viewBox="0 0 64 64" width="100%" xml:space="preserve" xmlns="http://www.w3.org/2000/svg" xmlns:vectornator="http://vectornator.io" xmlns:xlink="http://www.w3.org/1999/xlink">
<defs>
<linearGradient gradientTransform="matrix(1 0 0 1 0 0)" gradientUnits="userSpaceOnUse" id="LinearGradient" x1="18.25" x2="38.375" y1="20.4531" y2="20.4531">
<stop offset="0" stop-color="#a208ba"/>
<stop offset="1" stop-color="#fd8d33"/>
</linearGradient>
<linearGradient gradientTransform="matrix(1 0 0 1 0 0)" gradientUnits="userSpaceOnUse" id="LinearGradient_2" x1="13.6875" x2="63.8125" y1="31.9059" y2="31.9059">
<stop offset="0" stop-color="#ffd335"/>
<stop offset="1" stop-color="#ec0014"/>
</linearGradient>
</defs>
<clipPath id="ArtboardFrame">
<rect height="64" width="64" x="0" y="0"/>
</clipPath>
<g clip-path="url(#ArtboardFrame)" id="Ebene" vectornator:layerName="Ebene" visibility="hidden">
<use opacity="1" transform="matrix(0.0713489 0 0 0.0713489 0.00420611 2.97583)" xlink:href="#Image"/>
</g>
<g clip-path="url(#ArtboardFrame)" id="Ebene-3" vectornator:layerName="Ebene 3" visibility="hidden">
<path d="M0.161032 34.9234L18.2317 27.6142C18.8949 26.8455 19.8276 25.6582 20.7733 24.5631C22.284 22.8135 23.887 21.0634 26.0551 20.4818C28.5905 19.8016 29.4447 18.8305 31.1115 17.2667C33.472 15.0521 35.5975 11.6871 37.1507 9.05206C38.9699 5.96565 40.4135 3.34575 42.5956 3.39861C47.9539 3.52841 53.9706 25.6764 53.9706 25.6764C53.9706 25.6764 56.1608 32.07 58.6254 38.4887C61.09 44.9075 63.8086 51.1321 63.8086 51.1321C63.8086 51.1321 62.2335 50.3832 59.3816 47.4569C56.5297 44.5305 52.7844 41.7009 50.3744 42.3328C45.2161 43.6851 40.978 50.2731 36.0843 55.2663C30.9886 60.4656 27.5336 60.396 27.5336 60.396C27.5336 60.396 24.0419 50.296 20.8587 46.1788C18.5582 43.2033 16.0191 43.8659 14.7152 44.4266C14.2734 44.6166 13.6826 44.856 13.6826 44.856L0.161032 34.9234Z" fill="none" opacity="1" stroke="#007aff" stroke-linecap="butt" stroke-linejoin="round" stroke-width="0.1"/>
<path d="M13.6855 44.8557C13.6855 44.8557 17.4984 43.4353 20.7474 40.0339C24.0569 36.5692 27.3801 31.8517 28.8627 29.2103C34.8499 18.5437 38.3931 7.08084 38.3931 7.08084L40.3199 3.6461L43.2178 1.91112L56.6851 20.1808L65.8124 52.1464L47.907 60.2615L25.3521 62.2948L13.6855 44.8557Z" fill="none" opacity="1" stroke="#007aff" stroke-linecap="butt" stroke-linejoin="round" stroke-width="0.1"/>
<path d="M18.236 27.5716L25.9206 33.7195L18.1124 47.4636L5.81799 46.9291L-2.32293 34.7293L18.236 27.5716Z" fill="none" opacity="1" stroke="#007aff" stroke-linecap="butt" stroke-linejoin="round" stroke-width="0.1"/>
</g>
<g id="Ebene-2" vectornator:layerName="Ebene 2" visibility="hidden">
<path d="M38.375 7.1875C37.9753 7.8316 37.5829 8.33861 37.1562 9.0625C35.6031 11.6975 33.4855 15.0667 31.125 17.2812C29.4581 18.845 28.5979 19.7886 26.0625 20.4688C23.8944 21.0504 22.292 22.8129 20.7812 24.5625C19.8517 25.639 18.9116 26.7926 18.25 27.5625L25.9062 33.7188C27.1196 32.0337 28.221 30.384 28.875 29.2188C34.8227 18.6224 38.3287 7.33693 38.375 7.1875Z" fill="none" opacity="1" stroke="#007aff" stroke-linecap="butt" stroke-linejoin="round" stroke-width="0.1"/>
<path d="M18.25 27.5625C18.2386 27.5758 18.23 27.6119 18.2188 27.625L0.15625 34.9375L13.6875 44.8438C13.6875 44.8438 17.501 43.4326 20.75 40.0312C22.5995 38.095 24.3718 35.8566 25.9062 33.7188L18.25 27.5625Z" fill="none" opacity="1" stroke="#007aff" stroke-linecap="butt" stroke-linejoin="round" stroke-width="0.1"/>
<path d="M42.5938 3.40625C40.9235 3.36579 39.6796 5.08539 38.375 7.1875C38.3287 7.33693 34.8227 18.6224 28.875 29.2188C27.3924 31.8602 24.0595 36.5666 20.75 40.0312C17.501 43.4326 13.6875 44.8438 13.6875 44.8438C13.6875 44.8438 14.277 44.6275 14.7188 44.4375C16.0227 43.8767 18.5433 43.212 20.8438 46.1875C24.0269 50.3047 27.5312 60.4062 27.5312 60.4062C27.5313 60.4062 30.9981 60.4806 36.0938 55.2812C40.9874 50.288 45.2167 43.6961 50.375 42.3438C52.785 41.7119 56.5231 44.5424 59.375 47.4688C62.2269 50.3951 63.8125 51.125 63.8125 51.125C63.8125 51.125 61.0896 44.9188 58.625 38.5C56.1604 32.0812 53.9688 25.6875 53.9688 25.6875C53.9688 25.6875 47.952 3.53605 42.5938 3.40625Z" fill="none" opacity="1" stroke="#007aff" stroke-linecap="butt" stroke-linejoin="round" stroke-width="0.1"/>
</g>
<g id="Ebene-1" vectornator:layerName="Ebene 1">
<path d="M38.375 7.1875C37.9753 7.8316 37.5829 8.33861 37.1562 9.0625C35.6031 11.6975 33.4855 15.0667 31.125 17.2812C29.4581 18.845 28.5979 19.7886 26.0625 20.4688C23.8944 21.0504 22.292 22.8129 20.7812 24.5625C19.8517 25.639 18.9116 26.7926 18.25 27.5625L25.9062 33.7188C27.1196 32.0337 28.221 30.384 28.875 29.2188C34.8227 18.6224 38.3287 7.33693 38.375 7.1875Z" fill="url(#LinearGradient)" fill-rule="nonzero" opacity="1" stroke="none"/>
<path d="M18.25 27.5625C18.2386 27.5758 18.23 27.6119 18.2188 27.625L0.15625 34.9375L13.6875 44.8438C13.6875 44.8438 17.501 43.4326 20.75 40.0312C22.5995 38.095 24.3718 35.8566 25.9062 33.7188L18.25 27.5625Z" fill="#85d4ff" fill-rule="nonzero" opacity="1" stroke="none"/>
<path d="M42.5938 3.40625C40.9235 3.36579 39.6796 5.08539 38.375 7.1875C38.3287 7.33693 34.8227 18.6224 28.875 29.2188C27.3924 31.8602 24.0595 36.5666 20.75 40.0312C17.501 43.4326 13.6875 44.8438 13.6875 44.8438C13.6875 44.8438 14.277 44.6275 14.7188 44.4375C16.0227 43.8767 18.5433 43.212 20.8438 46.1875C24.0269 50.3047 27.5312 60.4062 27.5312 60.4062C27.5313 60.4062 30.9981 60.4806 36.0938 55.2812C40.9874 50.288 45.2167 43.6961 50.375 42.3438C52.785 41.7119 56.5231 44.5424 59.375 47.4688C62.2269 50.3951 63.8125 51.125 63.8125 51.125C63.8125 51.125 61.0896 44.9188 58.625 38.5C56.1604 32.0812 53.9688 25.6875 53.9688 25.6875C53.9688 25.6875 47.952 3.53605 42.5938 3.40625Z" fill="url(#LinearGradient_2)" fill-rule="nonzero" opacity="1" stroke="none"/>
</g>
</svg>
